<svg width="50" height="63" viewBox="0 0 50 63" fill="none" xmlns="http://www.w3.org/2000/svg">
<path d="M34.375 37.5C30.9239 37.5 28.125 40.2989 28.125 43.75C28.125 47.2011 30.9239 50 34.375 50C37.8261 50 40.625 47.2011 40.625 43.75C40.625 40.2989 37.8261 37.5 34.375 37.5ZM34.375 46.875C32.6538 46.875 31.25 45.4742 31.25 43.75C31.25 42.0258 32.6538 40.625 34.375 40.625C36.0962 40.625 37.5 42.0258 37.5 43.75C37.5 45.4742 36.0962 46.875 34.375 46.875ZM21.875 31.25C21.875 27.7989 19.0731 25 15.625 25C12.1704 25 9.375 27.7989 9.375 31.25C9.375 34.7011 12.1704 37.5 15.625 37.5C19.0739 37.5 21.875 34.7011 21.875 31.25ZM12.5 31.25C12.5 29.5258 13.9038 28.125 15.625 28.125C17.3462 28.125 18.75 29.5258 18.75 31.25C18.75 32.9742 17.3462 34.375 15.625 34.375C13.9038 34.375 12.5 32.9742 12.5 31.25ZM25 0C25 0 0 15.625 0 37.5C0 51.3058 11.1942 62.5 25 62.5C38.8058 62.5 50 51.3058 50 37.5C50 15.625 25 0 25 0ZM25 59.375C12.9397 59.375 3.125 49.5605 3.125 37.5C3.125 20.7824 19.6406 7.61496 25.0033 3.78125C30.3653 7.60513 46.875 20.7366 46.875 37.5C46.875 49.5603 37.0605 59.375 25 59.375ZM35.4801 29.2299L16.7301 47.9799L14.5206 45.7704L33.2706 27.0204L35.4801 29.2299Z" fill="#CBD5E1"/>
</svg>
