<svg width="154" height="154" viewBox="0 0 154 154" fill="none" xmlns="http://www.w3.org/2000/svg">
<path d="M76.7612 36.79C54.2389 36.79 35.9154 54.7363 35.9154 76.7957C35.9154 98.8526 54.2392 116.801 76.7612 116.801C99.2832 116.801 117.607 98.8517 117.607 76.7957C117.607 54.7354 99.2832 36.79 76.7612 36.79ZM76.7612 106.804C59.7523 106.804 45.9154 93.3411 45.9154 76.7986C45.9154 60.2529 59.7537 46.7929 76.7612 46.7929C93.77 46.7929 107.607 60.2537 107.607 76.7986C107.607 93.3409 93.7697 106.804 76.7612 106.804Z" fill="#CBD5E1"/>
<path d="M76.7611 27.0414C79.5212 27.0414 81.7611 24.8015 81.7611 22.0414V5C81.7611 2.23994 79.5212 0 76.7611 0C74.0011 0 71.7611 2.23994 71.7611 5V22.0414C71.7611 24.8015 74.0011 27.0414 76.7611 27.0414Z" fill="#CBD5E1"/>
<path d="M76.7611 126.781C74.0011 126.781 71.7611 129.021 71.7611 131.781V148.52C71.7611 151.28 74.0011 153.52 76.7611 153.52C79.5212 153.52 81.7611 151.28 81.7611 148.52V131.781C81.7611 129.021 79.5212 126.781 76.7611 126.781V126.781Z" fill="#CBD5E1"/>
<path d="M115.453 43.0671C116.732 43.0671 118.012 42.5783 118.987 41.6017L131.039 29.548C132.992 27.5949 132.992 24.4309 131.039 22.4777C129.085 20.5246 125.921 20.5246 123.968 22.4777L111.917 34.5315C109.964 36.4846 109.964 39.652 111.917 41.6017C112.895 42.5794 114.174 43.0671 115.453 43.0671V43.0671Z" fill="#CBD5E1"/>
<path d="M34.3183 112.133L22.4857 123.969C20.5326 125.922 20.5326 129.086 22.4857 131.039C23.4623 132.016 24.7413 132.505 26.0203 132.505C27.2993 132.505 28.5794 132.016 29.5549 131.039L41.3874 119.203C43.3405 117.25 43.3405 114.086 41.3874 112.133C39.4354 110.18 36.2714 110.18 34.3183 112.133V112.133Z" fill="#CBD5E1"/>
<path d="M148.521 71.7614H131.477C128.717 71.7614 126.477 74.0014 126.477 76.7614C126.477 79.5215 128.717 81.7614 131.477 81.7614H148.521C151.281 81.7614 153.521 79.5215 153.521 76.7614C153.521 74.0014 151.281 71.7614 148.521 71.7614Z" fill="#CBD5E1"/>
<path d="M26.7354 76.7614C26.7354 74.0014 24.4955 71.7614 21.7354 71.7614H5C2.23994 71.7614 0 74.0014 0 76.7614C0 79.5215 2.23994 81.7614 5 81.7614H21.7354C24.4955 81.7614 26.7354 79.5215 26.7354 76.7614Z" fill="#CBD5E1"/>
<path d="M118.987 111.913C117.034 109.96 113.87 109.96 111.917 111.913C109.963 113.866 109.963 117.03 111.917 118.983L123.968 131.04C124.945 132.017 126.224 132.505 127.503 132.505C128.782 132.505 130.062 132.017 131.037 131.04C132.99 129.087 132.99 125.923 131.037 123.97L118.987 111.913Z" fill="#CBD5E1"/>
<path d="M34.3183 41.3871C35.2949 42.3637 36.5739 42.8525 37.8529 42.8525C39.1319 42.8525 40.412 42.3637 41.3874 41.3871C43.3405 39.4374 43.3405 36.27 41.3874 34.3169L29.5549 22.4809C27.6017 20.5277 24.4377 20.5277 22.4846 22.4809C20.5315 24.4306 20.5315 27.598 22.4846 29.5511L34.3183 41.3871Z" fill="#CBD5E1"/>
</svg>
