<svg width="60" height="48" viewBox="0 0 60 48" fill="none" xmlns="http://www.w3.org/2000/svg">
<path d="M48.4954 2.77164L45.155 6.42104L50.1652 11.0603H13.4227C12.6184 11.0603 11.8478 10.741 11.2791 10.1727C10.7109 9.60403 10.3916 8.83341 10.3916 8.02961C10.3916 7.22578 10.7109 6.45471 11.2791 5.88608C11.8478 5.31783 12.6184 4.99853 13.4227 4.99853C14.2265 4.99853 14.9971 5.31782 15.5658 5.88608C16.134 6.45476 16.4533 7.22581 16.4533 8.02961H21.4019C21.4149 5.93523 20.6045 3.91983 19.1448 2.41827C17.6856 0.916269 15.6939 0.0486267 13.6004 0.0020137C11.5069 -0.0450168 9.47859 0.733363 7.95373 2.16886C6.42887 3.60392 5.5293 5.581 5.449 7.67361C5.36874 9.76622 6.11433 11.8067 7.52527 13.3544C8.93581 14.9022 10.8985 15.8332 12.9895 15.9472H49.7939L45.1547 20.2154L48.3092 23.6176L45.1547 27.0198L49.9794 31.4734L12.9895 31.473C10.9055 31.5865 8.94917 32.5115 7.53907 34.0506C6.12942 35.5893 5.37864 37.6194 5.44767 39.705C5.51671 41.7908 6.40037 43.7666 7.90921 45.2089C9.41762 46.6509 11.4314 47.4443 13.5179 47.4194C15.605 47.3944 17.5988 46.553 19.0727 45.0751C20.5466 43.5973 21.3824 41.6014 21.4018 39.5143H16.4532C16.4532 40.3181 16.1339 41.0892 15.5657 41.6574C14.997 42.2256 14.2264 42.5449 13.4226 42.5449C12.6183 42.5449 11.8477 42.2256 11.279 41.6574C10.7108 41.0891 10.3915 40.3181 10.3915 39.5143C10.3915 38.7105 10.7108 37.9394 11.279 37.3712C11.8477 36.8025 12.6183 36.4832 13.4226 36.4832H49.9795L45.1548 40.9368L48.4948 44.5863L60 34.0091L48.7422 23.6791L60 13.3491L48.4954 2.77164Z" fill="#CBD5E1"/>
<path d="M0 21.2666H42.124V26.2152H0V21.2666Z" fill="#CBD5E1"/>
</svg>
